<?xml version="1.0" encoding="UTF-8" standalone="no"?>
<svg
   width="110"
   height="20.859301"
   viewBox="0 0 110 20.859301"
   fill="none"
   version="1.1"
   id="svg12"
   xmlns="http://www.w3.org/2000/svg"
   xmlns:svg="http://www.w3.org/2000/svg">
  <defs
     id="defs12" />
  <path
     d="m 18.9979,13.3121 c -1.4076,0 -2.1341,0.5109 -2.7749,0.9615 -0.5629,0.3957 -1.0076,0.7082 -1.9749,0.7082 -0.9671,0 -1.4117,-0.3125 -1.9745,-0.7082 -0.6408,-0.4508 -1.3673,-0.9615 -2.77491,-0.9615 -1.4074,0 -2.13393,0.5109 -2.77476,0.9615 -0.56275,0.3957 -1.00736,0.7082 -1.9745,0.7082 -0.96713,0 -1.41174,-0.3125 -1.97449,-0.7082 C 2.13393,13.823 1.4074,13.3121 0,13.3121 v 1.3914 c 0.967316,0 1.41175,0.3125 1.97449,0.7084 0.64101,0.4506 1.36736,0.9614 2.77494,0.9614 1.40741,0 2.13393,-0.5108 2.77477,-0.9614 0.56274,-0.3959 1.00735,-0.7084 1.97449,-0.7084 0.96731,0 1.41171,0.3125 1.97471,0.7084 0.6408,0.4506 1.3673,0.9614 2.7747,0.9614 1.4076,0 2.1341,-0.5108 2.7751,-0.9614 0.5628,-0.3957 1.0074,-0.7084 1.9747,-0.7084 0.9673,0 1.4118,0.3125 1.9747,0.7084 0.6408,0.4506 1.3674,0.9614 2.7749,0.9614 v -1.3915 c -0.9673,0 -1.4119,-0.3125 -1.9746,-0.7082 -0.6411,-0.4506 -1.3676,-0.9615 -2.775,-0.9615 z"
     fill="#c3fffb"
     id="path1" />
  <path
     d="m 18.9979,5.10409 c -1.4076,0 -2.1341,0.51074 -2.7749,0.96133 -0.5629,0.3957 -1.0076,0.70841 -1.9749,0.70841 -0.9671,0 -1.4117,-0.31271 -1.9745,-0.70841 C 11.6328,5.61483 10.9063,5.10409 9.49869,5.10409 8.09129,5.10409 7.36476,5.61483 6.72393,6.06542 6.16118,6.46112 5.71657,6.77383 4.74943,6.77383 3.7823,6.77383 3.33769,6.46112 2.77494,6.06542 2.13393,5.61483 1.4074,5.10409 0,5.10409 v 1.39145 c 0.967316,0 1.41175,0.31254 1.97449,0.70823 0.64101,0.45078 1.36736,0.96152 2.77494,0.96152 1.40741,0 2.13393,-0.51092 2.77477,-0.96152 0.56274,-0.39569 1.00735,-0.70823 1.97449,-0.70823 0.96731,0 1.41171,0.31254 1.97471,0.70823 0.6408,0.45078 1.3673,0.96152 2.7747,0.96152 1.4076,0 2.1341,-0.51092 2.7751,-0.96152 0.5628,-0.39569 1.0074,-0.70823 1.9747,-0.70823 0.9673,0 1.4118,0.31254 1.9747,0.70823 0.6408,0.45078 1.3674,0.96152 2.7749,0.96152 V 6.77383 c -0.9673,0 -1.4119,-0.31271 -1.9746,-0.70841 -0.6411,-0.45059 -1.3676,-0.96133 -2.775,-0.96133 z"
     fill="#c3fffb"
     id="path2" />
  <path
     d="m 18.9979,9.20816 c -1.4076,0 -2.1341,0.51074 -2.7749,0.96134 -0.5629,0.3957 -1.0076,0.7084 -1.9749,0.7084 -0.9671,0 -1.4117,-0.3127 -1.9745,-0.7084 -0.6408,-0.4506 -1.3673,-0.96134 -2.77491,-0.96134 -1.4074,0 -2.13393,0.51074 -2.77476,0.96134 -0.56275,0.3957 -1.00736,0.7084 -1.9745,0.7084 -0.96713,0 -1.41174,-0.3127 -1.97449,-0.7084 C 2.13393,9.7189 1.4074,9.20816 0,9.20816 v 1.39144 c 0.967316,0 1.41175,0.3126 1.97449,0.7082 0.64101,0.4506 1.36736,0.9616 2.77494,0.9616 1.40741,0 2.13393,-0.511 2.77477,-0.9616 0.56274,-0.3956 1.00735,-0.7082 1.97449,-0.7082 0.96731,0 1.41171,0.3126 1.97471,0.7082 0.6408,0.4506 1.3673,0.9616 2.7747,0.9616 1.4076,0 2.1341,-0.511 2.7751,-0.9616 0.5628,-0.3956 1.0074,-0.7082 1.9747,-0.7082 0.9673,0 1.4118,0.3126 1.9747,0.7082 0.6408,0.4506 1.3674,0.9616 2.7749,0.9616 v -1.3915 c -0.9673,0 -1.4119,-0.3127 -1.9746,-0.7084 -0.6411,-0.4506 -1.3676,-0.96134 -2.775,-0.96134 z"
     fill="#c3fffb"
     id="path3" />
  <path
     d="M 21.7729,1.96152 C 21.1318,1.51074 20.4053,1 18.9979,1 17.5903,1 16.8638,1.51074 16.223,1.96152 15.6601,2.35721 15.2154,2.66975 14.2481,2.66975 13.281,2.66975 12.8364,2.35721 12.2736,1.96152 11.6328,1.51074 10.9063,1 9.49869,1 8.09129,1 7.36476,1.51074 6.72393,1.96152 6.16118,2.35721 5.71657,2.66975 4.74943,2.66975 3.7823,2.66975 3.33769,2.35721 2.77494,1.96152 2.13393,1.51074 1.4074,1 0,1 v 1.39146 c 0.967316,0 1.41175,0.31253 1.97449,0.70823 0.64101,0.45077 1.36736,0.96152 2.77494,0.96152 1.40741,0 2.13393,-0.51075 2.77477,-0.96152 0.56274,-0.3957 1.00735,-0.70823 1.97449,-0.70823 0.96731,0 1.41171,0.31253 1.97471,0.70823 0.6408,0.45077 1.3673,0.96152 2.7747,0.96152 1.4076,0 2.1341,-0.51075 2.7751,-0.96152 0.5628,-0.3957 1.0074,-0.70823 1.9747,-0.70823 0.9673,0 1.4118,0.31253 1.9747,0.70823 0.6408,0.45077 1.3674,0.96152 2.7749,0.96152 V 2.66975 c -0.9673,0 -1.4119,-0.31254 -1.9746,-0.70823 z"
     fill="#c3fffb"
     id="path4" />
  <path
     d="m 36.7231,16.0349 c -1.4049,0 -2.5495,-0.3102 -3.4338,-0.9306 -0.8843,-0.6204 -1.4262,-1.494 -1.6259,-2.6208 l 2.2892,-0.353 c 0.1426,0.599 0.4706,1.0733 0.9841,1.4227 0.5206,0.3423 1.166,0.5135 1.9362,0.5135 0.6988,0 1.2444,-0.1427 1.6366,-0.4279 0.3994,-0.2853 0.5991,-0.6775 0.5991,-1.1767 0,-0.2924 -0.0714,-0.5277 -0.214,-0.706 C 38.7591,11.5707 38.4703,11.396 38.0282,11.2319 37.586,11.0679 36.9121,10.8647 36.0064,10.6222 35.0151,10.3655 34.2271,10.0909 33.6423,9.79853 33.0647,9.49901 32.6511,9.15314 32.4015,8.76091 32.159,8.36156 32.0378,7.88019 32.0378,7.31681 c 0,-0.69888 0.1854,-1.30861 0.5562,-1.8292 0.3709,-0.5206 0.8915,-0.92352 1.5618,-1.20878 0.6775,-0.28525 1.4691,-0.42788 2.3748,-0.42788 0.8843,0 1.6723,0.13906 2.364,0.41719 0.6918,0.27812 1.2516,0.67391 1.6795,1.18737 0.4278,0.50633 0.6846,1.1018 0.7701,1.78642 L 39.0551,7.65911 C 38.9766,7.10287 38.7163,6.66429 38.2742,6.34337 37.832,6.02246 37.258,5.84774 36.552,5.81922 c -0.6775,-0.02853 -1.2266,0.08557 -1.6474,0.3423 -0.4208,0.2496 -0.6311,0.59547 -0.6311,1.03762 0,0.25673 0.0784,0.47424 0.2353,0.65252 0.164,0.17829 0.4778,0.34944 0.9414,0.51346 0.4635,0.16402 1.1481,0.36014 2.0538,0.58834 0.9699,0.2496 1.7401,0.52772 2.3106,0.83438 0.5705,0.29956 0.977,0.65966 1.2194,1.08036 0.2496,0.4137 0.3744,0.9164 0.3744,1.5083 0,1.1411 -0.4172,2.036 -1.2515,2.685 -0.8273,0.649 -1.9719,0.9734 -3.4338,0.9734 z"
     fill="#c3fffb"
     id="path5" />
  <path
     d="m 48.7923,16.0456 c -1.1553,0 -2.1573,-0.2603 -3.0059,-0.7809 -0.8487,-0.5205 -1.5047,-1.2373 -1.9683,-2.1501 -0.4564,-0.9199 -0.6846,-1.9789 -0.6846,-3.17701 0,-1.2052 0.2353,-2.26421 0.706,-3.17703 0.4707,-0.91995 1.1303,-1.63309 1.979,-2.13942 0.8486,-0.51346 1.8399,-0.77019 2.9738,-0.77019 1.1552,0 2.1572,0.2603 3.0058,0.78089 0.8487,0.52059 1.5048,1.2373 1.9683,2.15011 0.4635,0.91282 0.6953,1.9647 0.6953,3.15564 0,1.20521 -0.2353,2.26781 -0.706,3.18771 -0.4635,0.9128 -1.1196,1.6295 -1.9683,2.1501 -0.8486,0.5135 -1.847,0.7702 -2.9951,0.7702 z m 0,-2.1073 c 1.1053,0 1.929,-0.3708 2.471,-1.1125 0.5491,-0.7488 0.8237,-1.7115 0.8237,-2.88821 0,-1.2052 -0.2782,-2.16794 -0.8344,-2.88821 -0.5491,-0.7274 -1.3692,-1.0911 -2.4603,-1.0911 -0.7488,0 -1.3657,0.17115 -1.8506,0.51346 -0.485,0.33517 -0.8451,0.80228 -1.0804,1.40132 -0.2354,0.5919 -0.353,1.28008 -0.353,2.06453 0,1.21231 0.2781,2.18221 0.8343,2.90961 0.5563,0.7274 1.3728,1.0911 2.4497,1.0911 z"
     fill="#c3fffb"
     id="path6" />
  <path
     d="M 57.0263,15.7247 V 0 h 2.2357 v 15.7247 z"
     fill="#c3fffb"
     id="path7" />
  <path
     d="M 62.6883,2.27848 V 0.106971 H 64.924 V 2.27848 Z m 0,13.44622 V 4.17186 H 64.924 V 15.7247 Z"
     fill="#c3fffb"
     id="path8" />
  <path
     d="m 72.7253,16.0456 c -1.0768,0 -2.0075,-0.2674 -2.7919,-0.8022 -0.7773,-0.5349 -1.3799,-1.2623 -1.8078,-2.1823 -0.4208,-0.927 -0.6312,-1.9682 -0.6312,-3.12351 0,-1.16241 0.214,-2.20003 0.6419,-3.11285 0.4279,-0.91995 1.034,-1.64378 1.8185,-2.17151 0.7916,-0.53485 1.7293,-0.80228 2.8133,-0.80228 1.0911,0 2.0075,0.26743 2.7492,0.80228 0.7488,0.52773 1.3121,1.25156 1.6901,2.17151 0.3851,0.91995 0.5777,1.95757 0.5777,3.11285 0,1.15531 -0.1926,2.19291 -0.5777,3.11281 -0.3851,0.92 -0.952,1.651 -1.7008,2.193 -0.7488,0.5348 -1.6759,0.8022 -2.7813,0.8022 z m 0.3102,-2.0217 c 0.7346,0 1.3336,-0.1747 1.7972,-0.5242 0.4635,-0.3494 0.8022,-0.8308 1.0162,-1.4441 0.2139,-0.6133 0.3209,-1.3193 0.3209,-2.11801 0,-0.79871 -0.1105,-1.50472 -0.3316,-2.11802 C 75.6242,7.20627 75.2891,6.72847 74.8327,6.38616 74.3834,6.04385 73.8093,5.8727 73.1104,5.8727 c -0.7416,0 -1.3514,0.18185 -1.8292,0.54555 -0.4778,0.3637 -0.8344,0.8522 -1.0697,1.4655 -0.2282,0.6133 -0.3423,1.29792 -0.3423,2.05384 0,0.76311 0.1141,1.45481 0.3423,2.07521 0.2353,0.6133 0.5848,1.1018 1.0483,1.4655 0.4707,0.3637 1.0626,0.5456 1.7757,0.5456 z m 2.8776,6.8354 v -8.3758 h 0.2567 V 4.17186 h 1.9897 V 20.8593 Z"
     fill="#c3fffb"
     id="path9" />
  <path
     d="m 85.5062,16.0349 c -0.7987,0 -1.4691,-0.1283 -2.0111,-0.3851 C 82.9531,15.3931 82.511,15.0579 82.1687,14.6443 81.8335,14.2236 81.5768,13.7672 81.3985,13.2751 81.2202,12.783 81.099,12.3017 81.0348,11.831 80.9706,11.3603 80.9385,10.9467 80.9385,10.5901 V 4.17186 h 2.2678 v 5.68016 c 0,0.44928 0.0357,0.91278 0.107,1.39058 0.0784,0.4707 0.221,0.9093 0.4279,1.3158 0.2139,0.4065 0.5098,0.7345 0.8878,0.9841 0.3851,0.2496 0.8843,0.3744 1.4976,0.3744 0.3994,0 0.7773,-0.0642 1.1339,-0.1925 0.3566,-0.1355 0.6668,-0.3495 0.9306,-0.6419 0.271,-0.2923 0.4814,-0.6774 0.6312,-1.1552 0.1569,-0.4779 0.2353,-1.0591 0.2353,-1.7437 l 1.3906,0.5242 c 0,1.0483 -0.1961,1.9754 -0.5883,2.7812 -0.3922,0.7987 -0.9556,1.4227 -1.6902,1.872 -0.7345,0.4493 -1.6223,0.6739 -2.6635,0.6739 z M 89.325,15.7247 V 12.3872 H 89.0576 V 4.17186 h 2.2571 V 15.7247 Z"
     fill="#c3fffb"
     id="path10" />
  <path
     d="M 94.5288,2.27848 V 0.106971 h 2.2357 V 2.27848 Z m 0,13.44622 V 4.17186 h 2.2357 V 15.7247 Z"
     fill="#c3fffb"
     id="path11" />
  <path
     d="m 104.566,16.0456 c -1.077,0 -2.008,-0.2674 -2.792,-0.8022 -0.777,-0.5349 -1.38,-1.2623 -1.8079,-2.1823 -0.4207,-0.927 -0.6311,-1.9682 -0.6311,-3.12351 0,-1.16241 0.2139,-2.20003 0.6418,-3.11285 0.4282,-0.91995 1.0342,-1.64378 1.8182,-2.17151 0.792,-0.53485 1.73,-0.80228 2.814,-0.80228 1.091,0 2.007,0.26743 2.749,0.80228 0.749,0.52773 1.312,1.25156 1.69,2.17151 0.385,0.91995 0.578,1.95757 0.578,3.11285 0,1.15531 -0.193,2.19291 -0.578,3.11281 -0.385,0.92 -0.952,1.651 -1.701,2.193 -0.749,0.5348 -1.676,0.8022 -2.781,0.8022 z m 0.31,-2.0217 c 0.735,0 1.334,-0.1747 1.797,-0.5242 0.464,-0.3494 0.802,-0.8308 1.016,-1.4441 0.214,-0.6133 0.321,-1.3193 0.321,-2.11801 0,-0.79871 -0.11,-1.50472 -0.331,-2.11802 -0.214,-0.6133 -0.549,-1.0911 -1.006,-1.43341 -0.449,-0.34231 -1.023,-0.51346 -1.722,-0.51346 -0.742,0 -1.351,0.18185 -1.829,0.54555 -0.478,0.3637 -0.835,0.8522 -1.07,1.4655 -0.228,0.6133 -0.342,1.29792 -0.342,2.05384 0,0.76311 0.114,1.45481 0.342,2.07521 0.235,0.6133 0.585,1.1018 1.048,1.4655 0.471,0.3637 1.063,0.5456 1.776,0.5456 z m 3.134,1.7008 V 7.41308 h -0.256 V 0.320912 H 110 V 15.7247 Z"
     fill="#c3fffb"
     id="path12" />
</svg>
